<svg width="28" height="28" viewBox="0 0 28 28" fill="none" xmlns="http://www.w3.org/2000/svg">
<g clip-path="url(#clip0_177_484)">
<path d="M14 28C21.7328 28 28 21.7328 28 14C28 6.26719 21.7328 0 14 0C6.26719 0 0 6.26719 0 14C0 21.7328 6.26719 28 14 28ZM12.6875 18.8125V15.3125H9.1875C8.46016 15.3125 7.875 14.7273 7.875 14C7.875 13.2727 8.46016 12.6875 9.1875 12.6875H12.6875V9.1875C12.6875 8.46016 13.2727 7.875 14 7.875C14.7273 7.875 15.3125 8.46016 15.3125 9.1875V12.6875H18.8125C19.5398 12.6875 20.125 13.2727 20.125 14C20.125 14.7273 19.5398 15.3125 18.8125 15.3125H15.3125V18.8125C15.3125 19.5398 14.7273 20.125 14 20.125C13.2727 20.125 12.6875 19.5398 12.6875 18.8125Z" fill="black"/>
</g>
<defs>
<clipPath id="clip0_177_484">
<rect width="28" height="28" fill="white"/>
</clipPath>
</defs>
</svg>
