<svg width="25" height="25" viewBox="0 0 25 25" fill="none" xmlns="http://www.w3.org/2000/svg">
<g clip-path="url(#clip0_360_159)">
<path d="M16.4063 12.5C15.1701 12.5 13.9617 12.8666 12.9339 13.5533C11.9061 14.2401 11.1051 15.2162 10.632 16.3582C10.159 17.5003 10.0352 18.7569 10.2763 19.9693C10.5175 21.1817 11.1128 22.2953 11.9868 23.1694C12.8609 24.0435 13.9746 24.6388 15.1869 24.8799C16.3993 25.1211 17.656 24.9973 18.798 24.5242C19.9401 24.0512 20.9162 23.2501 21.6029 22.2223C22.2897 21.1945 22.6563 19.9861 22.6563 18.75C22.6541 17.0931 21.9949 15.5046 20.8233 14.333C19.6516 13.1613 18.0632 12.5022 16.4063 12.5ZM19.8594 21.0977L18.7539 22.2031L16.4063 19.8555L14.0586 22.2031L12.9531 21.0977L15.3008 18.75L12.9531 16.4023L14.0586 15.2969L16.4063 17.6445L18.7539 15.2969L19.8594 16.4023L17.5117 18.75L19.8594 21.0977Z" fill="#485696"/>
<path d="M11.7188 25H3.3125C2.95207 24.9997 2.60648 24.8564 2.35162 24.6015C2.09675 24.3466 1.95344 24.0011 1.95312 23.6406V18.4258C1.95478 16.6475 2.66194 14.9425 3.9194 13.685C5.17685 12.4276 6.88185 11.7204 8.66016 11.7188H11.6523C12.0387 11.7187 12.4243 11.7527 12.8047 11.8203C11.6321 12.4292 10.6332 13.3256 9.90132 14.4256C9.16949 15.5256 8.7287 16.7933 8.6202 18.1101C8.51171 19.4269 8.73905 20.7497 9.28096 21.9546C9.82288 23.1596 10.6616 24.2074 11.7188 25Z" fill="#485696"/>
<path d="M10.5469 0H9.76562C7.60826 0 5.85938 1.74889 5.85938 3.90625V5.46875C5.85938 7.62611 7.60826 9.375 9.76562 9.375H10.5469C12.7042 9.375 14.4531 7.62611 14.4531 5.46875V3.90625C14.4531 1.74889 12.7042 0 10.5469 0Z" fill="#485696"/>
</g>
<defs>
<clipPath id="clip0_360_159">
<rect width="25" height="25" fill="white"/>
</clipPath>
</defs>
</svg>
