<svg width="24" height="24" viewBox="0 0 24 24" fill="none" xmlns="http://www.w3.org/2000/svg">
<g clip-path="url(#clip0_364_169)">
<path d="M3 0H14C14.7949 0.00237409 15.5566 0.319207 16.1187 0.881302C16.6808 1.4434 16.9976 2.20508 17 3V9H8C7.20435 9 6.44129 9.31607 5.87868 9.87868C5.31607 10.4413 5 11.2044 5 12C5 12.7956 5.31607 13.5587 5.87868 14.1213C6.44129 14.6839 7.20435 15 8 15H17V21C16.9976 21.7949 16.6808 22.5566 16.1187 23.1187C15.5566 23.6808 14.7949 23.9976 14 24H3C2.20508 23.9976 1.4434 23.6808 0.881302 23.1187C0.319207 22.5566 0.00237409 21.7949 0 21V3C0.00237409 2.20508 0.319207 1.4434 0.881302 0.881302C1.4434 0.319207 2.20508 0.00237409 3 0Z" fill="#2A2A2A"/>
<path d="M20.59 13.0002H8.00003C7.73482 13.0002 7.48046 12.8948 7.29293 12.7073C7.10539 12.5198 7.00003 12.2654 7.00003 12.0002C7.00003 11.735 7.10539 11.4806 7.29293 11.2931C7.48046 11.1055 7.73482 11.0002 8.00003 11.0002H20.59L19.29 9.71019C19.1017 9.52188 18.9959 9.26649 18.9959 9.00019C18.9959 8.73388 19.1017 8.47849 19.29 8.29019C19.4783 8.10188 19.7337 7.99609 20 7.99609C20.2663 7.99609 20.5217 8.10188 20.71 8.29019L23.71 11.2902C23.8907 11.4825 23.9912 11.7364 23.9912 12.0002C23.9912 12.264 23.8907 12.5179 23.71 12.7102L20.71 15.7102C20.5185 15.8924 20.2643 15.994 20 15.994C19.7357 15.994 19.4815 15.8924 19.29 15.7102C19.1027 15.5214 18.9976 15.2662 18.9976 15.0002C18.9976 14.7342 19.1027 14.479 19.29 14.2902L20.59 13.0002Z" fill="#2A2A2A"/>
</g>
<defs>
<clipPath id="clip0_364_169">
<rect width="24" height="24" fill="white" transform="matrix(-1 0 0 1 24 0)"/>
</clipPath>
</defs>
</svg>
