<svg width="17" height="17" viewBox="0 0 17 17" fill="none" xmlns="http://www.w3.org/2000/svg">
<path fill-rule="evenodd" clip-rule="evenodd" d="M0.380859 2.90486C0.380859 1.64249 1.40421 0.619141 2.66657 0.619141H3.71162C4.36715 0.619141 4.93855 1.06528 5.09754 1.70123L5.94005 5.07128C6.07946 5.62889 5.8711 6.21575 5.41128 6.56061L4.42566 7.29983C4.32331 7.37659 4.30106 7.48899 4.32981 7.56747C5.19496 9.92923 7.07078 11.805 9.43253 12.6702C9.51101 12.6989 9.62342 12.6767 9.70018 12.5743L10.4394 11.5887C10.7843 11.1289 11.3711 10.9205 11.9287 11.06L15.2988 11.9025C15.9347 12.0614 16.3809 12.6329 16.3809 13.2884V14.3334C16.3809 15.5958 15.3575 16.6191 14.0951 16.6191H12.3809C5.75344 16.6191 0.380859 11.2466 0.380859 4.61914V2.90486Z" fill="white"/>
</svg>
