<svg width="20" height="20" viewBox="0 0 20 20" fill="none" xmlns="http://www.w3.org/2000/svg">
<path fill-rule="evenodd" clip-rule="evenodd" d="M8.25 1.5C4.52208 1.5 1.5 4.52208 1.5 8.25C1.5 11.9779 4.52208 15 8.25 15C10.1142 15 11.8006 14.2453 13.023 13.023C14.2453 11.8006 15 10.1142 15 8.25C15 4.52208 11.9779 1.5 8.25 1.5ZM0 8.25C0 3.69365 3.69365 0 8.25 0C12.8063 0 16.5 3.69365 16.5 8.25C16.5 10.2578 15.782 12.0991 14.5899 13.5293L19.2803 18.2197C19.5732 18.5126 19.5732 18.9874 19.2803 19.2803C18.9874 19.5732 18.5126 19.5732 18.2197 19.2803L13.5293 14.5899C12.0991 15.782 10.2578 16.5 8.25 16.5C3.69365 16.5 0 12.8063 0 8.25Z" fill="#C3C4C8"/>
</svg>
