<svg width="25" height="22" viewBox="0 0 25 22" fill="none" xmlns="http://www.w3.org/2000/svg">
<path d="M21.3081 7.15859C21.4456 7.53242 21.3296 7.94922 21.0331 8.21562L19.1725 9.90859C19.2198 10.2652 19.2456 10.6305 19.2456 11C19.2456 11.3695 19.2198 11.7348 19.1725 12.0914L21.0331 13.7844C21.3296 14.0508 21.4456 14.4676 21.3081 14.8414C21.119 15.3527 20.8913 15.8426 20.6292 16.3152L20.4272 16.6633C20.1436 17.1359 19.8256 17.5828 19.4776 18.0039C19.2241 18.3133 18.803 18.4164 18.4249 18.2961L16.0315 17.5355C15.4557 17.9781 14.8198 18.3477 14.1409 18.627L13.6038 21.0805C13.5178 21.4715 13.2171 21.7809 12.8217 21.8453C12.2288 21.9441 11.6186 21.9957 10.9956 21.9957C10.3725 21.9957 9.76236 21.9441 9.1694 21.8453C8.77408 21.7809 8.4733 21.4715 8.38736 21.0805L7.85026 18.627C7.17135 18.3477 6.53541 17.9781 5.95963 17.5355L3.57057 18.3004C3.19244 18.4207 2.77135 18.3133 2.51783 18.0082C2.16979 17.5871 1.85182 17.1402 1.56822 16.6676L1.36627 16.3195C1.10416 15.8469 0.876427 15.357 0.687365 14.8457C0.549865 14.4719 0.66588 14.0551 0.962365 13.7887L2.82291 12.0957C2.77565 11.7348 2.74986 11.3695 2.74986 11C2.74986 10.6305 2.77565 10.2652 2.82291 9.90859L0.962365 8.21562C0.66588 7.94922 0.549865 7.53242 0.687365 7.15859C0.876427 6.64727 1.10416 6.15742 1.36627 5.68477L1.56822 5.33672C1.85182 4.86406 2.16979 4.41719 2.51783 3.99609C2.77135 3.68672 3.19244 3.58359 3.57057 3.70391L5.96393 4.46445C6.53971 4.02187 7.17565 3.65234 7.85455 3.37305L8.39166 0.919531C8.4776 0.528516 8.77838 0.219141 9.17369 0.154687C9.76666 0.0515625 10.3768 0 10.9999 0C11.6229 0 12.2331 0.0515625 12.826 0.150391C13.2214 0.214844 13.5221 0.524219 13.6081 0.915234L14.1452 3.36875C14.8241 3.64805 15.46 4.01758 16.0358 4.46016L18.4292 3.69961C18.8073 3.5793 19.2284 3.68672 19.4819 3.9918C19.8299 4.41289 20.1479 4.85977 20.4315 5.33242L20.6335 5.68047C20.8956 6.15312 21.1233 6.64297 21.3124 7.1543L21.3081 7.15859ZM10.9999 14.4375C12.8991 14.4375 14.4374 12.8992 14.4374 11C14.4374 9.10078 12.8991 7.5625 10.9999 7.5625C9.10065 7.5625 7.56237 9.10078 7.56237 11C7.56237 12.8992 9.10065 14.4375 10.9999 14.4375Z" fill="#2A2A2A"/>
</svg>
