<svg width="25" height="23" viewBox="0 0 25 23" fill="none" xmlns="http://www.w3.org/2000/svg">
<path d="M7.99045 1.65804C8.42014 2.04432 8.45486 2.6997 8.06858 3.12939L4.94358 6.60161C4.7526 6.81429 4.48351 6.94016 4.19705 6.9445C3.91059 6.94884 3.63715 6.84033 3.43316 6.64068L1.69271 4.90457C1.28472 4.49658 1.28472 3.83686 1.69271 3.43321C2.10069 3.02957 2.76042 3.02522 3.16406 3.43321L4.12326 4.39241L6.51476 1.73616C6.90104 1.30648 7.55642 1.27175 7.98611 1.65804H7.99045ZM7.99045 8.60248C8.42014 8.98877 8.45486 9.64415 8.06858 10.0738L4.94358 13.5461C4.7526 13.7587 4.48351 13.8846 4.19705 13.8889C3.91059 13.8933 3.63715 13.7848 3.43316 13.5851L1.69271 11.849C1.28472 11.441 1.28472 10.7813 1.69271 10.3777C2.10069 9.97401 2.76042 9.96967 3.16406 10.3777L4.12326 11.3369L6.51476 8.68061C6.90104 8.25092 7.55642 8.2162 7.98611 8.60248H7.99045ZM11.1111 4.16672C11.1111 3.39849 11.7318 2.77783 12.5 2.77783H22.2222C22.9905 2.77783 23.6111 3.39849 23.6111 4.16672C23.6111 4.93495 22.9905 5.55561 22.2222 5.55561H12.5C11.7318 5.55561 11.1111 4.93495 11.1111 4.16672ZM11.1111 11.1112C11.1111 10.3429 11.7318 9.72227 12.5 9.72227H22.2222C22.9905 9.72227 23.6111 10.3429 23.6111 11.1112C23.6111 11.8794 22.9905 12.5001 22.2222 12.5001H12.5C11.7318 12.5001 11.1111 11.8794 11.1111 11.1112ZM8.33333 18.0556C8.33333 17.2874 8.95399 16.6667 9.72222 16.6667H22.2222C22.9905 16.6667 23.6111 17.2874 23.6111 18.0556C23.6111 18.8238 22.9905 19.4445 22.2222 19.4445H9.72222C8.95399 19.4445 8.33333 18.8238 8.33333 18.0556ZM3.47222 20.1389C2.32205 20.1389 1.38889 19.2058 1.38889 18.0556C1.38889 16.9054 2.32205 15.9723 3.47222 15.9723C4.6224 15.9723 5.55556 16.9054 5.55556 18.0556C5.55556 19.2058 4.6224 20.1389 3.47222 20.1389Z" fill="#2A2A2A"/>
</svg>
