<svg width="25" height="20" viewBox="0 0 25 20" fill="none" xmlns="http://www.w3.org/2000/svg">
<path d="M2.75 0C1.2332 0 0 1.2332 0 2.75V4.125H24.75V2.75C24.75 1.2332 23.5168 0 22 0H2.75ZM24.75 8.25H0V16.5C0 18.0168 1.2332 19.25 2.75 19.25H22C23.5168 19.25 24.75 18.0168 24.75 16.5V8.25ZM4.8125 13.75H7.5625C7.94063 13.75 8.25 14.0594 8.25 14.4375C8.25 14.8156 7.94063 15.125 7.5625 15.125H4.8125C4.43437 15.125 4.125 14.8156 4.125 14.4375C4.125 14.0594 4.43437 13.75 4.8125 13.75ZM9.625 14.4375C9.625 14.0594 9.93437 13.75 10.3125 13.75H15.8125C16.1906 13.75 16.5 14.0594 16.5 14.4375C16.5 14.8156 16.1906 15.125 15.8125 15.125H10.3125C9.93437 15.125 9.625 14.8156 9.625 14.4375Z" fill="#2A2A2A"/>
</svg>
